<?xml version="1.0" encoding="utf-8"?>
<!-- Generator: Adobe Illustrator 22.0.1, SVG Export Plug-In . SVG Version: 6.00 Build 0)  -->
<svg version="1.1" id="Layer_1" xmlns="http://www.w3.org/2000/svg" xmlns:xlink="http://www.w3.org/1999/xlink" x="0px" y="0px"
	 viewBox="0 0 500 500" enable-background="new 0 0 500 500" xml:space="preserve">
<g>
	<path fill="#16161D" d="M67.9,76.7h276.8c25.6,0.9,40.7,22.3,46,45.3c26.7-14.1,53.1-28.5,79.8-42.3c0.1,22.8,0.2,45.5,0.1,68.3
		c-63.6,35.1-129.1,67-192.5,102.6C342.9,283.2,406.9,317,470.7,351c0,23,0,45.9,0,68.9c-26.9-13.9-53.8-27.7-80.2-42.5
		c-4.6,21.2-16.7,40.7-39.1,45.9H65.3c-16.2-4.7-29-15.9-36-31.1v-81.8c38.6-20.4,77.8-39.8,116-61.1c-38.9-19.3-77.6-38.8-116-59
		v-76.8C32.5,93.9,48.4,79.5,67.9,76.7z M68.5,142.6c48.2,22.6,95,47.8,142.1,72.7c47.3-24.1,94.1-48.8,141-73.6
		C257.2,142.1,162.8,140.6,68.5,142.6z M69.6,357.9c94,0.9,187.9,0.1,281.9,0.5c-45.9-26.1-93.6-49-140-74.3
		C164.3,308.8,117,333.5,69.6,357.9z"/>
</g>
<rect x="9.3" y="51.3" fill="none" width="481.3" height="397.3"/>
</svg>
